<svg width="1396" height="320" fill="none" xmlns="http://www.w3.org/2000/svg"><path fill-rule="evenodd" clip-rule="evenodd" d="M422.241 23.34c0-12.845 9.747-22.479 22.742-22.479 12.345 0 22.742 10.276 22.742 22.478 0 12.845-9.747 22.478-22.742 22.478-12.995 0-22.742-9.633-22.742-22.478ZM548.393 1h-23.786C520.644 1 518 4.298 518 7.595v231.81c0 3.956 3.304 6.595 6.607 6.595h23.786c3.965 0 6.607-3.298 6.607-6.595V8.255C555 4.298 552.358 1 548.393 1ZM89.201 72.568C37.114 72.568 0 119.548 0 160.093c0 52.129 42.322 87.525 91.806 87.525 24.109 0 47.393-3.752 67.065-19.307 2.604-1.931 3.255-5.792 1.302-8.367l-11.069-15.445c-2.604-3.218-6.511-3.862-9.767-1.287-13.673 8.366-29.951 13.514-44.926 13.514-27.49 0-46.997-17.195-53.39-42.475h124.361c7.134 0 7.162-8.185 7.162-13.514.752-49.081-35.344-88.169-83.343-88.169Zm0 33.466c26.602 0 41.038 14.884 46.23 40.544H43.624c1.001-23.751 23.607-40.544 45.577-40.544Zm1133.239 53.491c0-40.545 37.12-87.525 89.21-87.525 47.99 0 84.09 39.088 83.34 88.168 0 5.33-.03 13.515-7.16 13.515h-124.37c6.4 25.279 25.91 42.475 53.4 42.475 14.97 0 31.25-5.148 44.92-13.515 3.26-2.574 7.16-1.93 9.77 1.287l11.07 15.446c1.95 2.574 1.3 6.436-1.3 8.366-18.79 14.857-43.07 19.307-67.07 19.307-49.48 0-91.81-35.396-91.81-87.524Zm135.44-13.515c-4.96-24.471-19.64-40.545-46.23-40.545-24.16 0-44.44 13.466-45.58 40.545h91.81ZM1179.43 75h-23.45c-3.9 0-6.51 3.218-6.51 6.436v86.237c0 32.178-18.23 44.406-41.02 44.406-23.44 0-41.02-12.228-41.02-44.406V81.436c0-3.862-3.25-6.436-6.51-6.436h-23.44c-3.9 0-6.51 3.218-6.51 6.436v89.455c0 53.416 38.42 75.297 78.13 75.297 39.72 0 78.14-21.881 78.14-75.297V81.436c-.65-3.862-3.91-6.436-7.81-6.436ZM597 159.5c0-49.248 38.357-86.5 89.5-86.5s89.5 37.252 89.5 86.5-38.357 86.5-89.5 86.5c-51.782 0-89.5-37.252-89.5-86.5Zm36.44 0c0 29.044 23.652 52.406 53.06 52.406 30.047 0 53.7-23.362 53.061-52.406 0-29.044-23.653-52.405-53.061-52.405s-53.06 23.361-53.06 52.405Zm346.698-81.784h-25.393c-2.605 0-5.208 2.574-5.208 5.149v14.802c-14.601-17.317-34.186-23.812-55.996-23.812-45.295 0-82.04 42.242-82.04 86.237 0 54.06 43.624 86.238 82.04 86.238 17.901 0 42.909-5.612 55.344-19.951 0 32.365-15.331 58.128-50.602 58.843-25.654 0-43.085-7.013-52.487-12.215-4.246-2.35-10.186-.743-11.976 3.768l-6.88 17.336c-1.178 2.968-.512 6.39 2.048 8.297 12.632 9.409 38.367 18.351 70.316 16.349 52.319-.599 87.996-33.397 87.996-85.942V83.508c-.651-3.218-3.255-5.792-7.162-5.792Zm-82.039 137.079c-29.951 0-54.043-23.812-54.043-53.416 0-29.604 24.092-53.415 54.043-53.415s54.041 23.811 54.041 53.415-24.09 53.416-54.041 53.416ZM298.964 72c49.283 0 87.247 38.462 87.247 88.168 0 51.614-37.809 85.594-87.899 85.594-21.406 0-37.361-7.044-50.786-22.524v83.019c0 3.218-2.605 6.436-6.511 6.436h-23.44c-3.255 0-6.511-2.574-6.511-6.436V82.297c0-3.454 2.97-6.435 6.511-6.435h25.393c2.604 0 5.209 2.574 5.209 5.148v14.802C260.704 80.954 279.743 72 298.964 72Zm-54.043 88.812c0 29.604 24.092 53.416 54.043 53.416s54.041-23.812 54.041-53.416c0-29.604-24.09-53.416-54.041-53.416-29.951 0-54.043 23.812-54.043 53.416ZM456.035 74h-23.391c-3.899 0-6.498 3.211-6.498 6.422v159.134c0 3.854 3.249 6.423 6.498 6.423h23.391c3.899 0 6.498-3.211 6.498-6.423V80.422c0-3.21-2.599-6.422-6.498-6.422Z" fill="#221C54"/></svg>